# xmcd
#
# Track frame offsets:
#	150
#	30601
#	57669
#	68697
#	90816
#	106691
#	137885
#	173549
#	194815
#	208335
#	232440
#	244054
#
# Disc length: 3735 seconds
#
# Revision: 1
# Processed by: cddbd v1.5.2PL0 Copyright (c) Steve Scherf et al.
# Submitted via: audiograbber 1.83.01
#
DISCID=ad0e950c
DTITLE=Grateful Dead - 78-01-15 Selland Arena, Fresno CA
DYEAR=1900
DGENRE=
TTITLE0=Bertha
TTITLE1=Good Lovin'
TTITLE2=Tuning
TTITLE3=Dire Wolf
TTITLE4=Mexicali Blues
TTITLE5=Big River
TTITLE6=It Must Have Been The Roses
TTITLE7=Passenger
TTITLE8=Tuning
TTITLE9=Brown Eyed Women
TTITLE10=Tuning
TTITLE11=The Music Never Stopped
EXTD=
EXTT0=
EXTT1=
EXTT2=
EXTT3=
EXTT4=
EXTT5=
EXTT6=
EXTT7=
EXTT8=
EXTT9=
EXTT10=
EXTT11=
PLAYORDER=
